<svg xmlns="http://www.w3.org/2000/svg" viewBox="0 21.299999237060547 141.35000610351562 34.20000076293945" data-asc="1.1" width="141.35000610351562" height="34.20000076293945"><defs/><g fill="#000000"><g transform="translate(0, 0)"><path d="M10.25 55.50Q7.20 55.50 4.53 55.08Q1.85 54.65 0.30 54.00L0.30 47.25Q2.05 48.05 4.48 48.50Q6.90 48.95 8.60 48.95Q10.40 48.95 11.33 48.85Q12.25 48.75 12.25 48.00Q12.25 47.15 10.60 46.70Q8.95 46.25 6.45 45.40Q3.20 44.25 1.60 42.70Q0 41.15 0 38.20Q0 34.65 2.80 32.73Q5.60 30.80 11.60 30.80Q13.90 30.80 16.35 31.15Q18.80 31.50 20.20 31.95L20.20 38.55Q18.70 37.90 16.93 37.60Q15.15 37.30 13.70 37.30Q12.10 37.30 10.85 37.45Q9.60 37.60 9.60 38.30Q9.60 39.10 11.03 39.45Q12.45 39.80 14.85 40.55Q17.55 41.35 19.08 42.30Q20.60 43.25 21.23 44.60Q21.85 45.95 21.85 47.95Q21.85 51.55 18.93 53.53Q16 55.50 10.25 55.50ZM32 55.50Q29.75 55.50 27.83 54.70Q25.90 53.90 24.75 52.20Q23.60 50.50 23.60 47.90Q23.60 44.15 26.10 42.08Q28.60 40.00 33.65 40.00L39.80 40.00L39.80 39.55Q39.80 38.15 38.65 37.50Q37.50 36.85 34.60 36.85Q30.50 36.85 26.50 38.10L26.50 32.45Q28.30 31.75 31 31.28Q33.70 30.80 36.50 30.80Q42.15 30.80 45.45 33.10Q48.75 35.40 48.75 40.40L48.75 55.00L40.55 55.00L40.10 53.10Q38.85 54.20 36.88 54.85Q34.90 55.50 32 55.50M35.20 50.00Q36.80 50.00 37.93 49.45Q39.05 48.90 39.80 48.10L39.80 45.15L35.25 45.15Q32.15 45.15 32.15 47.60Q32.15 50.00 35.20 50.00ZM53 55.00L53 31.30L62.05 31.30L62.30 33.20Q63.75 32.35 66 31.65Q68.25 30.95 70.55 30.80L70.55 37.80Q69.25 37.90 67.72 38.15Q66.20 38.40 64.78 38.78Q63.35 39.15 62.40 39.60L62.40 55.00L53 55.00ZM74.85 28.15L74.85 21.35L85 21.35L85 28.15L74.85 28.15M75.60 55.00L75.60 38.15L72.15 38.15L72.95 31.30L85 31.30L85 55.00L75.60 55.00ZM89.50 55.00L89.50 21.30L98.90 21.30L98.90 37.95L105.50 31.30L116.15 31.30L106.70 41.30L116.70 55.00L106.70 55.00L100.85 46.20L98.90 48.15L98.90 55.00L89.50 55.00ZM124.60 55.50Q122.35 55.50 120.42 54.70Q118.50 53.90 117.35 52.20Q116.20 50.50 116.20 47.90Q116.20 44.15 118.70 42.08Q121.20 40.00 126.25 40.00L132.40 40.00L132.40 39.55Q132.40 38.15 131.25 37.50Q130.10 36.85 127.20 36.85Q123.10 36.85 119.10 38.10L119.10 32.45Q120.90 31.75 123.60 31.28Q126.30 30.80 129.10 30.80Q134.75 30.80 138.05 33.10Q141.35 35.40 141.35 40.40L141.35 55.00L133.15 55.00L132.70 53.10Q131.45 54.20 129.47 54.85Q127.50 55.50 124.60 55.50M127.80 50.00Q129.40 50.00 130.53 49.45Q131.65 48.90 132.40 48.10L132.40 45.15L127.85 45.15Q124.75 45.15 124.75 47.60Q124.75 50.00 127.80 50.00Z"/></g></g></svg>